<?xml version="1.0" encoding="utf-8"?>
<!-- Generator: Adobe Illustrator 27.3.1, SVG Export Plug-In . SVG Version: 6.00 Build 0)  -->
<svg version="1.1" id="Шар_1" xmlns="http://www.w3.org/2000/svg"
	xmlns:xlink="http://www.w3.org/1999/xlink" x="0px" y="0px"
	viewBox="0 0 1000 1000" style="enable-background:new 0 0 1000 1000;" xml:space="preserve">
	<style type="text/css">
	.st0{fill:url(#SVGID_1_);}
	.st1{fill:url(#SVGID_00000141426890251248181910000012723573785545981865_);}
	.st2{fill:url(#SVGID_00000021818951804645660330000006657159039456312240_);}
	.st3{fill:url(#SVGID_00000013906294493411306470000015507859080689002168_);}
	.st4{fill:url(#SVGID_00000019680173594308163990000002002706946026761906_);}
	.st5{fill:url(#SVGID_00000108303701265130637920000007546646062676589195_);}
	.st6{fill:url(#SVGID_00000101795561691364243790000004297888704843588755_);}
	.st7{fill:url(#SVGID_00000086690404443633000540000013904242234456398209_);}
	.st8{fill:url(#SVGID_00000049215146436210721930000010704644566637963658_);}
	.st9{fill:url(#SVGID_00000056396059267803234430000014876654009082867348_);}
	.st10{fill:url(#SVGID_00000083802733962296888130000017755346690352276918_);}
	.st11{fill:url(#SVGID_00000094608334927281626750000011600109862408202122_);}
	.st12{fill:url(#SVGID_00000000902131483523806340000014798962223277921167_);}
	.st13{fill:url(#SVGID_00000093175611726270660340000013617049782787318964_);}
	.st14{fill:url(#SVGID_00000004533875714816300110000014614891820822052529_);}
	.st15{fill:url(#SVGID_00000111881457550652822150000017066709019474157716_);}
	.st16{fill:url(#SVGID_00000100364615904934087060000009283044858059755956_);}
	.st17{fill:url(#SVGID_00000107546265818218222370000012813718084358147259_);}
	.st18{fill:url(#SVGID_00000088818998346651855070000009580786816658560946_);}
	@keyframes rotate {
		from {
		  transform: rotate(0deg);
		}
		to {
		  transform: rotate(360deg);
		}
	  }
	  
	  #rhombus {
		animation: rotate 5s linear infinite;
		transform-origin: 50% 50%;
	  }

</style>
	<g id="center_x5F_ball_00000171694191522717887570000007119872906592995756_">
		<radialGradient id="SVGID_1_" cx="80.1212" cy="620.479" r="27.1011" gradientTransform="matrix(3.9923 0 0 -3.9923 181.0199 2984.2388)" gradientUnits="userSpaceOnUse">
			<stop  offset="0" style="stop-color:c"/>
			<stop  offset="1" style="stop-color:#00FF00"/>
		</radialGradient>
		<path class="st0" d="M499.5,614.4c-28.8,0-55.7-11.1-75.8-31.2c-20-20.1-31-46.8-30.8-75.1c0.2-28.9,11.9-56.2,32.9-76.7
		c20.6-20.3,47.9-31.4,76.8-31.4c28.8,0,55.7,11.1,75.8,31.2c19.8,19.9,30.7,46.5,30.6,74.8c-0.1,29.1-11.7,56.4-32.6,77
		C555.7,603.2,528.4,614.4,499.5,614.4z"/>
		<path d="M502.5,411.3c24.7,0,49.2,9.3,67.7,27.9c37.1,37.2,36.1,98-2,135.5c-19.1,18.8-44,28.2-68.7,28.2
		c-24.7,0-49.2-9.3-67.7-27.9c-37.4-37.5-36.4-98,2-135.5C452.9,420.7,477.8,411.3,502.5,411.3 M502.5,388.3v23V388.3
		c-31.9,0-62,12.3-84.8,34.7c-23.2,22.7-36.1,52.8-36.3,84.9c-0.2,31.4,11.9,61,34.1,83.3c22.3,22.3,52.1,34.6,84,34.6
		c31.9,0,62.1-12.3,84.9-34.8c11.6-11.5,20.7-24.9,26.9-39.8c6-14.5,9.1-29.7,9.2-45.4c0.1-31.4-11.9-60.9-33.9-83
		C564.2,400.6,534.4,388.3,502.5,388.3L502.5,388.3z"/>
	</g>
	<g id="rhombus">
		<g id="paths_00000162317019940051600980000003734090116286087345_">
			<g id="bottom_x5F_right_x5F_path">
				<linearGradient id="SVGID_00000011008264111099235400000005496428495095276937_" gradientUnits="userSpaceOnUse" x1="466.7714" y1="-58.4977" x2="983.9551" y2="458.686" gradientTransform="matrix(1 0 0 -1 0 924)">
					<stop  offset="0" style="stop-color:#FF00FF"/>
					<stop  offset="1" style="stop-color:#00FFFF"/>
				</linearGradient>
				<path style="fill:url(#SVGID_00000011008264111099235400000005496428495095276937_);" d="M540.1,943.4c-0.7,0-1.3-0.1-2-0.2
				c-3.7-0.6-6.8-3-8.4-6.4c-2.8-5.9-7.7-13.4-15.1-15.5c-2-0.5-3.8-1.6-5.3-3.1c-3.6-3.7-4.3-9.4-1.7-13.8c0.8-1.4,1.8-2.5,3-3.4
				c6.1-5.6,59.3-59.1,115.5-115.8c56-56.5,125.8-126.7,180.3-181.2c29.9-29.8,52.3-52,68.4-67.7c8.9-8.7,15.9-15.4,20.8-19.9
				c8-7.4,11-10.2,16.2-10.2c5,0,9.3,3.1,10.9,7.6c1.6,3.2,11.2,10.6,15.3,12.7c3,1.1,5.5,3.4,6.8,6.5c1.7,4.3,0.7,9.2-2.5,12.4
				L548.2,940C546,942.2,543.1,943.4,540.1,943.4z"/>
				<path d="M911.8,517.8C911.8,517.8,911.8,517.8,911.8,517.8c3.2,8.4,21,19.7,22.3,19.7l-394,394.4c-4.6-9.7-11.8-18.8-22.6-21.7
				C519.8,910,905.3,517.8,911.8,517.8 M517.5,910.2C517.5,910.2,517.5,910.2,517.5,910.2C517.5,910.2,517.5,910.2,517.5,910.2
				C517.5,910.2,517.5,910.2,517.5,910.2 M911.8,494.8c-9.8,0-15.4,5.3-24,13.2c-4.9,4.6-12,11.3-21,20.1
				c-16.2,15.7-38.6,37.9-68.5,67.8C743.7,650.3,674,720.6,617.9,777c-55.2,55.6-107.4,108.2-114.8,115.1c-2.3,1.8-4.2,4-5.7,6.7
				c-5.1,9-3.6,20.3,3.8,27.6c0.8,0.8,1.7,1.5,2.6,2.2c1.9,1.4,4,2.5,6.3,3.3c0.5,0.2,1,0.3,1.4,0.4c2.4,0.7,5.3,4.2,7.7,9.3
				c3.2,6.8,9.5,11.6,16.9,12.9c1.3,0.2,2.6,0.3,4,0.3c6.1,0,11.9-2.4,16.3-6.7l394-394.4c6.5-6.5,8.5-16.3,5.1-24.8
				c-2.3-5.8-6.8-10.3-12.4-12.6c-2.9-1.7-8.4-5.9-10.3-8.1C929,500.2,920.9,494.8,911.8,494.8L911.8,494.8z"/>
			</g>
			<g id="botom_x5F_left_x5F_path">
				<linearGradient id="SVGID_00000118390095473721628340000006338800842811814016_" gradientUnits="userSpaceOnUse" x1="22.6213" y1="459.1176" x2="541.4551" y2="-59.7165" gradientTransform="matrix(1 0 0 -1 0 924)">
					<stop  offset="0" style="stop-color:#FFFF00"/>
					<stop  offset="1" style="stop-color:#FF00FF"/>
				</linearGradient>
				<path style="fill:url(#SVGID_00000118390095473721628340000006338800842811814016_);" d="M469.7,944.1c-3,0-5.9-1.2-8.1-3.3
				L62.7,544.9c-2.6-2.5-3.8-6.1-3.3-9.7c0.5-3.6,2.6-6.7,5.8-8.5c7.3-4.1,12.6-10.4,14.5-17.4c1.1-4,4.2-7.1,8.1-8.1
				c1-0.3,2-0.4,3-0.4c3,0,5.9,1.2,8.1,3.3l401.5,398.4c2.9,2.8,4,7,3.1,10.9c-1,3.9-3.9,7-7.7,8.3c-6.6,2.1-12.6,7.9-15.2,14.9
				c-1.4,3.6-4.5,6.3-8.3,7.1C471.3,944,470.5,944.1,469.7,944.1z"/>
				<path d="M90.7,512.3l401.5,398.4c-10.2,3.2-18.7,11.9-22.5,21.8L70.8,536.8C80.2,531.5,87.9,522.8,90.7,512.3 M90.7,489.3
				c-2,0-4,0.3-6,0.8c-7.9,2.1-14.1,8.3-16.2,16.3c-1,3.9-4.4,7.8-9,10.3c-6.3,3.5-10.6,9.8-11.6,17c-1,7.2,1.5,14.4,6.6,19.4
				l398.9,395.8c4.4,4.3,10.2,6.7,16.2,6.7c1.6,0,3.2-0.2,4.8-0.5c7.6-1.6,13.9-7,16.6-14.3c1.4-3.7,4.7-7.1,8-8.1
				c7.7-2.4,13.5-8.7,15.4-16.5c1.9-7.8-0.4-16.1-6.2-21.8L106.9,496C102.6,491.7,96.7,489.3,90.7,489.3L90.7,489.3z"/>
			</g>
			<g id="top_x5F_right_x5F_path">
				<linearGradient id="SVGID_00000062879124869512283750000008073525820955781298_" gradientUnits="userSpaceOnUse" x1="465.6537" y1="905.28" x2="985.2844" y2="385.6497" gradientTransform="matrix(1 0 0 -1 0 924)">
					<stop  offset="0" style="stop-color:#FF00FF"/>
					<stop  offset="1" style="stop-color:#00FFFF"/>
				</linearGradient>
				<path style="fill:url(#SVGID_00000062879124869512283750000008073525820955781298_);" d="M911.5,500.4c-3,0-6-1.2-8.2-3.4
				L508.7,98.1c-3.2-3.2-4.2-8.1-2.5-12.3c1.4-3.6,4.6-6.3,8.3-7.1c0.1-0.1,0.3-0.1,0.4-0.2c0.4-0.3,0.8-0.5,1.3-0.7
				c0.7-0.5,1.4-0.9,2.2-1.3c0.5-0.4,1.1-0.8,1.7-1.1c0.3-0.3,0.7-0.5,1-0.7c0.4-0.3,0.8-0.6,1.3-0.9c0.4-0.3,1.1-0.9,1.6-1.3
				c0.2-0.3,0.5-0.6,0.7-0.8c0.4-0.7,0.9-1.4,1.4-2c0.4-0.9,0.8-1.7,1.4-2.5c0.3-2.3,1.2-4.5,2.7-6.2c1.9-2.5,4.9-4.1,8-4.4
				c0.3,0,0.7,0,1,0c3.1,0,6,1.2,8.2,3.4l395.5,399.9c3.1,3.2,4.2,7.9,2.6,12.1c-1.3,3.5-4.1,6-7.6,7c-3.8,2.1-13.9,10.5-15.7,14
				c-1.4,3.6-4.5,6.3-8.3,7.1C913.1,500.3,912.3,500.4,911.5,500.4z"/>
				<path d="M539.3,68L934.8,468c-3.1,0.2-20.7,13.7-23.3,20.9L516.9,90c1.1,0,2-0.4,2.7-0.9c0.7-0.2,1.2-0.5,1.7-0.9
				c0.8-0.2,1.4-0.7,1.9-1.2c1-0.2,1.7-0.8,2.3-1.4c0.6-0.2,1.2-0.6,1.6-1c0.5-0.2,0.9-0.5,1.3-0.9c0.6-0.3,4.1-3.1,4.6-3.9
				c0.8-0.6,1.4-1.4,1.7-2.3c1.1-0.7,1.8-1.9,2.1-3.3c1.1-0.8,1.7-2.1,1.8-3.4c0.3-0.7,0.4-1.5,0.4-2.3
				C539,68.3,539.2,68.2,539.3,68 M539.3,45c-0.7,0-1.4,0-2.1,0.1c-6.3,0.6-12,3.7-15.9,8.6c-2.2,2.7-3.8,5.8-4.7,9.2
				c-0.1,0.2-0.2,0.4-0.3,0.6c-0.3,0.3-0.5,0.7-0.7,1c-0.4,0.3-0.8,0.6-1.2,0.9c-0.2,0.1-0.4,0.3-0.6,0.4c-0.5,0.3-1,0.6-1.5,1
				c-0.7,0.4-1.4,0.8-2.1,1.3c-6.6,2-12.1,7-14.7,13.6c-3.3,8.5-1.3,18.1,5.1,24.6L895.1,505c4.4,4.4,10.3,6.8,16.4,6.8
				c1.6,0,3.3-0.2,4.9-0.5c7-1.5,12.9-6.3,15.9-12.7c2-2.5,7.6-7.2,10.6-9.1c6.1-2.3,11.1-7.2,13.4-13.5c3.1-8.4,1.1-17.8-5.2-24.2
				L555.6,51.9C551.3,47.5,545.4,45,539.3,45L539.3,45z"/>
			</g>
			<g id="top_x5F_left_x5F_path">
				<linearGradient id="SVGID_00000165219650267272670410000012771109747322238890_" gradientUnits="userSpaceOnUse" x1="17.8371" y1="383.3899" x2="541.6451" y2="907.1984" gradientTransform="matrix(1 0 0 -1 0 924)">
					<stop  offset="0" style="stop-color:#FFFF00"/>
					<stop  offset="1" style="stop-color:#FF00FF"/>
				</linearGradient>
				<path style="fill:url(#SVGID_00000165219650267272670410000012771109747322238890_);" d="M89.6,501.6c-1,0-2-0.1-2.9-0.4
				c-3.8-1-6.8-3.9-8-7.6c-1.8-3.3-10.4-11-14.4-13.3c-3.4-0.5-6.5-2.5-8.3-5.6c-2.7-4.5-1.9-10.3,1.8-14l403.3-401
				c2.2-2.2,5.1-3.3,8.1-3.3c0.4,0,0.9,0,1.3,0.1c3.5,0.4,6.6,2.3,8.4,5.3l1,1.6c5.3,8.4,8.8,13.5,14,13.9c4.5,0.3,8.4,3.3,9.9,7.5
				c1.6,4.2,0.5,9-2.7,12.1L97.7,498.2C95.5,500.4,92.6,501.6,89.6,501.6z"/>
				<path d="M469.2,68c5.8,9.2,11.8,20,23.9,20.9L89.6,490.1c-1.9-6.7-19.1-21.2-23.3-21.2c-0.1,0-0.3,0-0.4,0L469.2,68 M469.2,45
				c-6,0-11.9,2.4-16.2,6.7l-403.3,401c-7.4,7.4-8.9,18.9-3.6,28c3.1,5.3,8,8.9,13.6,10.5c2.8,2,7,5.8,8.7,7.9
				c2.8,6.5,8.4,11.4,15.3,13.3c1.9,0.5,3.9,0.8,5.9,0.8c6,0,11.9-2.4,16.2-6.7l403.5-401.2c6.4-6.3,8.5-15.8,5.4-24.3
				c-3-8.1-10.3-13.9-18.9-14.9c-1.7-1.6-4.4-5.9-6.1-8.7c-0.3-0.6-0.7-1.1-1-1.6c-3.7-5.9-9.9-9.8-16.9-10.6
				C470.9,45.1,470.1,45,469.2,45L469.2,45z"/>
			</g>
		</g>
		<g id="balls_00000086693268071300183430000002182499013067678629_">
			<g id="bottom_x5F_ball_00000058551427501454128360000010973174382062374024_">
				<radialGradient id="SVGID_00000145745966177485991040000014022286783180176007_" cx="504.8615" cy="945.54" r="49.6595" gradientUnits="userSpaceOnUse">
					<stop  offset="0" style="stop-color:#FFFFFF"/>
					<stop  offset="1" style="stop-color:#FF00FF"/>
				</radialGradient>
				<path style="fill:url(#SVGID_00000145745966177485991040000014022286783180176007_);" d="M504.4,995.1
				c-16.2,0-31.4-7.9-40.5-21.1c-7.5-10.9-10.4-24-7.9-37.1c2.4-13,9.8-24.4,20.7-31.9c8.5-5.9,18.4-9,28.6-9
				c16.2,0,31.4,7.9,40.5,21.1c7.5,10.9,10.4,24,7.9,37.1c-2.4,13-9.8,24.4-20.7,31.9C524.6,992,514.7,995.1,504.4,995.1z"/>
				<path d="M505.3,907.5c12,0,23.8,5.6,31.1,16.2c11.9,17.2,7.5,40.9-9.9,53c-6.7,4.7-14.5,6.9-22.1,6.9c-12,0-23.8-5.6-31.1-16.2
				c-11.9-17.2-7.5-40.9,9.9-53C490,909.7,497.7,907.5,505.3,907.5 M505.3,884.5v23V884.5C505.3,884.5,505.3,884.5,505.3,884.5
				c-12.6,0-24.8,3.8-35.2,11c-27.8,19.3-34.8,57.5-15.7,85c11.3,16.3,30,26,50,26c12.6,0,24.8-3.8,35.2-11
				c13.4-9.3,22.5-23.3,25.5-39.3c3-16.1-0.5-32.4-9.8-45.8C544,894.2,525.3,884.5,505.3,884.5L505.3,884.5z"/>
			</g>
			<g id="right_x5F_ball">
				<radialGradient id="SVGID_00000093870906748134741990000012515989112562852529_" cx="946.2111" cy="502.5347" r="49.6521" gradientUnits="userSpaceOnUse">
					<stop  offset="0" style="stop-color:#FFFFFF"/>
					<stop  offset="1" style="stop-color:#00FFFF"/>
				</radialGradient>
				<path style="fill:url(#SVGID_00000093870906748134741990000012515989112562852529_);" d="M945.8,552.1
				c-16.2,0-31.4-7.9-40.5-21.1c-7.5-10.9-10.4-24-7.9-37.1c2.4-13,9.8-24.4,20.7-31.9c8.5-5.9,18.4-9,28.6-9
				c16.2,0,31.4,7.9,40.5,21.1c15.5,22.4,9.8,53.3-12.8,69C965.9,549,956,552.1,945.8,552.1z"/>
				<path d="M946.7,464.5c12,0,23.8,5.6,31.1,16.2c11.9,17.2,7.5,40.9-9.9,53c-6.7,4.7-14.5,6.9-22.1,6.9c-12,0-23.8-5.6-31.1-16.2
				c-11.9-17.2-7.5-40.9,9.9-53C931.4,466.7,939.1,464.5,946.7,464.5 M946.7,441.5v23V441.5C946.7,441.5,946.7,441.5,946.7,441.5
				c-12.6,0-24.8,3.8-35.2,11c-13.4,9.3-22.5,23.3-25.5,39.3c-3,16.1,0.5,32.4,9.8,45.8c11.3,16.3,30,26,50,26
				c12.6,0,24.8-3.8,35.2-11c13.4-9.3,22.5-23.3,25.5-39.3c3-16.1-0.5-32.4-9.8-45.8C985.3,451.2,966.6,441.5,946.7,441.5
				L946.7,441.5z"/>
			</g>
			<g id="left_x5F_ball">
				<radialGradient id="SVGID_00000036249608869191133480000002525949419272262319_" cx="54.6189" cy="502.8748" r="49.6509" gradientUnits="userSpaceOnUse">
					<stop  offset="0" style="stop-color:#FFFFFF"/>
					<stop  offset="1" style="stop-color:#FFFF00"/>
				</radialGradient>
				<path style="fill:url(#SVGID_00000036249608869191133480000002525949419272262319_);" d="M54.2,552.4c-16.2,0-31.4-7.9-40.5-21.1
				c-15.5-22.4-9.8-53.3,12.8-69c8.5-5.9,18.4-9,28.6-9c16.2,0,31.4,7.9,40.5,21.1c7.5,10.9,10.4,24,7.9,37.1
				c-2.4,13-9.8,24.4-20.7,31.9C74.3,549.3,64.4,552.4,54.2,552.4z"/>
				<path d="M55,464.8c12,0,23.8,5.6,31.1,16.2c11.9,17.2,7.5,40.9-9.9,53c-6.7,4.7-14.5,6.9-22.1,6.9c-12,0-23.8-5.6-31.1-16.2
				c-11.9-17.2-7.5-40.9,9.9-53C39.7,467.1,47.4,464.8,55,464.8 M55,441.8C55,441.8,55,441.8,55,441.8c-12.6,0-24.8,3.8-35.2,11.1
				c-13.4,9.3-22.5,23.3-25.4,39.3c-3,16.1,0.5,32.4,9.8,45.8c11.3,16.3,30,26,50,26c12.6,0,24.8-3.8,35.2-11.1
				c13.4-9.3,22.5-23.3,25.4-39.3c3-16.1-0.5-32.4-9.8-45.8C93.7,451.5,75,441.8,55,441.8L55,441.8z"/>
			</g>
			<g id="top_x5F_ball_00000032623405828190592630000018033218557041432499_">
				<radialGradient id="SVGID_00000070816279923658934110000017050633988597419693_" cx="504.8019" cy="54.5564" r="49.6596" gradientUnits="userSpaceOnUse">
					<stop  offset="0" style="stop-color:#FFFFFF"/>
					<stop  offset="1" style="stop-color:#FF00FF"/>
				</radialGradient>
				<path style="fill:url(#SVGID_00000070816279923658934110000017050633988597419693_);" d="M504.4,104.1
				c-16.2,0-31.4-7.9-40.5-21.1c-7.5-10.9-10.4-24-7.9-37.1c2.4-13,9.8-24.4,20.7-31.9c8.5-5.9,18.4-9,28.6-9
				c16.2,0,31.4,7.9,40.5,21.1c7.5,10.9,10.4,24,7.9,37.1c-2.4,13-9.8,24.4-20.7,31.9C524.5,101,514.6,104.1,504.4,104.1z"/>
				<path d="M505.2,16.5c12,0,23.8,5.6,31.1,16.2c11.9,17.2,7.5,40.9-9.9,53c-6.7,4.7-14.5,6.9-22.1,6.9c-12,0-23.8-5.6-31.1-16.2
				c-11.9-17.2-7.5-40.9,9.9-53C489.9,18.7,497.6,16.5,505.2,16.5 M505.2-6.5v23V-6.5C505.2-6.5,505.2-6.5,505.2-6.5
				c-12.6,0-24.8,3.8-35.2,11c-13.4,9.3-22.5,23.3-25.5,39.3c-3,16.1,0.5,32.4,9.8,45.8c11.3,16.3,30,26,50,26
				c12.6,0,24.8-3.8,35.2-11c27.8-19.3,34.8-57.5,15.7-85C543.9,3.2,525.2-6.5,505.2-6.5L505.2-6.5z"/>
			</g>
		</g>
	</g>
	<g id="right_x5F_bumerang">
		<g id="paths_00000075862081961989643520000015936708599204100234_">
			<g id="bottom_x5F_path_00000072254514210553670010000014519779701482357438_">
				<linearGradient id="SVGID_00000136379239578480475520000013266809021259188357_" gradientUnits="userSpaceOnUse" x1="723.0067" y1="483.0777" x2="956.2266" y2="-66.3544" gradientTransform="matrix(1 0 0 -1 0 924)">
					<stop  offset="0" style="stop-color:#00FFFF"/>
					<stop  offset="1" style="stop-color:#0000FF"/>
				</linearGradient>
				<path style="fill:url(#SVGID_00000136379239578480475520000013266809021259188357_);" d="M893.3,903.4c-0.6,0-1.3-0.1-1.9-0.2
				c-3.8-0.6-7-3.1-8.6-6.6L727.6,555.3c-1.9-4.2-1.1-9.1,2-12.5c2.2-2.4,5.3-3.7,8.5-3.7c1.3,0,2.5,0.2,3.8,0.6
				c3.4,1.2,7.1,1.8,10.9,1.8c9.6,0,19-3.7,25.1-9.8c2.2-2.2,5.1-3.4,8.2-3.4c0.7,0,1.4,0.1,2,0.2c3.7,0.7,6.9,3.1,8.4,6.6
				l155.4,341.7c2,4.3,1.1,9.5-2.3,12.9c-2.2,2.2-5.2,3.4-8.2,3.4c-1.6,0-3.2-0.3-4.7-1c-2.9-1.3-6.4-2-10.2-2
				c-9.3,0-19.3,4-24.9,9.9C899.4,902.2,896.4,903.4,893.3,903.4z"/>
				<path d="M786.1,539.8l155.4,341.7c-4.5-2-9.7-3-14.9-3c-12.2,0-25.3,5-33.2,13.4L738.1,550.5c4.7,1.6,9.7,2.4,14.7,2.4
				C765,552.9,777.6,548.3,786.1,539.8 M786.1,516.8c-6.1,0-12,2.4-16.3,6.8c-3.9,3.9-10.4,6.4-16.9,6.4c-2.6,0-5-0.4-7.2-1.1
				c-2.5-0.9-5-1.3-7.6-1.3c-6.4,0-12.6,2.6-17,7.5c-6.2,6.8-7.8,16.6-3.9,25l155.2,341.4c3.2,7,9.6,11.9,17.1,13.2
				c1.3,0.2,2.6,0.3,3.8,0.3c6.2,0,12.3-2.5,16.7-7.1c3.5-3.6,10.4-6.3,16.6-6.3c2.2,0,4.2,0.3,5.6,1c3,1.3,6.2,2,9.4,2
				c6,0,11.9-2.4,16.3-6.8c6.7-6.8,8.6-17,4.6-25.7L807,530.2c-3.1-6.9-9.4-11.8-16.9-13.1C788.8,516.9,787.4,516.8,786.1,516.8
				L786.1,516.8z"/>
			</g>
			<g id="top_x5F_path_00000129190884043709049760000000144693513095570877_">
				<linearGradient id="SVGID_00000116934223808509351230000014825519884568401596_" gradientUnits="userSpaceOnUse" x1="721.6699" y1="360.1603" x2="956.4666" y2="913.3054" gradientTransform="matrix(1 0 0 -1 0 924)">
					<stop  offset="0" style="stop-color:#00FFFF"/>
					<stop  offset="1" style="stop-color:#0000FF"/>
				</linearGradient>
				<path style="fill:url(#SVGID_00000116934223808509351230000014825519884568401596_);" d="M784.4,477c-3.3,0-6.4-1.5-8.5-3.8
				c-6.4-5.8-16.3-9.6-24.9-9.6c-3.3,0-6.2,0.5-8.7,1.6c-1.5,0.6-3,0.9-4.6,0.9c-3,0-6-1.2-8.2-3.4c-3.3-3.4-4.2-8.5-2.3-12.8
				l155.5-346.7c1.5-3.4,4.6-5.8,8.2-6.6c0.8-0.2,1.5-0.2,2.3-0.2c2.9,0,5.6,1.1,7.8,3c7.6,7,18.4,11.2,29,11.1
				c2.2,0,4.4-0.2,6.5-0.5c1-0.3,2-0.4,3-0.4c4.1,0,7.9,2.2,10,5.8c2.9,5,1.2,9.1-0.7,13.9c-1,2.4-2.5,6-4.4,10.5
				c-3.7,8.7-9,21-15.8,36.6c-13.4,30.6-31.4,71.3-49.4,111.7c-17.1,38.3-73.6,164.4-83.6,181.5c-1.2,2-4.3,7.4-11.2,7.4
				C784.5,477,784.4,477,784.4,477z"/>
				<path d="M893.3,107.9c9.8,9,23.4,14.2,36.7,14.2c3.2,0,6.3-0.3,9.4-0.9c0,0,0.1-0.1,0.1-0.1c1.9,0-150.9,344.4-155,344.4
				c-0.1,0-0.1-0.1-0.1-0.2c-8.3-7.9-21.3-13.3-33.4-13.3c-4.6,0-9.2,0.8-13.2,2.6C737.8,454.6,893.3,107.9,893.3,107.9 M893.3,84.9
				c-1.5,0-3.1,0.2-4.6,0.5c-7.2,1.5-13.3,6.4-16.3,13.1c-0.2,0.3-155.5,346.7-155.5,346.7c-3.9,8.7-2.1,18.8,4.6,25.6
				c4.4,4.5,10.3,6.9,16.4,6.9c3.1,0,6.2-0.6,9.1-1.9c1-0.4,2.5-0.7,4.1-0.7c5.6,0,12.5,2.6,16.9,6.3c4.2,4.4,10.1,7.1,16.6,7.1
				c4.8,0,13.8-1.5,20.3-11.7c0.7-1.1,1.5-2.5,2.4-4.3c1.5-2.7,3.4-6.5,5.8-11.6c4.4-9,10.6-22.2,18.3-39
				c17.4-37.7,38.5-84.7,53.2-117.6c18.7-41.9,37.8-85,52.4-118.3c25.5-58.4,25.5-58.8,25.6-64.7c0.1-12.6-10-23-22.7-23.2
				c-0.1,0-0.2,0-0.4,0c-1.9,0-3.7,0.2-5.5,0.7c-1.3,0.2-2.6,0.3-4,0.3c-7.7,0-15.6-3-21.2-8.1C904.6,87,899,84.9,893.3,84.9
				L893.3,84.9z"/>
			</g>
		</g>
		<g id="balls_00000179628814749816458520000016968404991775919801_">
			<g id="bottom_x5F_ball_00000034784231019439863410000017893878246025294481_">
				<radialGradient id="SVGID_00000129173571535565176860000015179408675326195596_" cx="927.7258" cy="928.8628" r="62.1962" gradientUnits="userSpaceOnUse">
					<stop  offset="0" style="stop-color:#FFFFFF"/>
					<stop  offset="1" style="stop-color:#0000FF"/>
				</radialGradient>
				<path style="fill:url(#SVGID_00000129173571535565176860000015179408675326195596_);" d="M928.7,991.1
				c-17.4,0-34.2-7.3-46.1-20.1c-23.6-25.3-22.6-64.7,2.3-87.9c11.3-10.6,26.2-16.4,41.8-16.4c17.4,0,34.2,7.3,46.1,20.1
				c11.4,12.2,17.5,28.1,17.1,44.6c-0.4,16.7-7.3,32-19.4,43.3C959.2,985.3,944.3,991.1,928.7,991.1z"/>
				<path d="M926.7,878.1c13.7,0,27.5,5.5,37.7,16.5c19.3,20.7,18.5,52.8-1.7,71.7c-9.5,8.9-21.7,13.3-33.9,13.3
				c-13.7,0-27.5-5.5-37.7-16.5c-19.3-20.7-18.5-52.8,1.7-71.7C902.3,882.5,914.5,878.1,926.7,878.1 M926.7,855.1v23V855.1
				c-18.5,0-36.2,6.9-49.6,19.5c-14.4,13.4-22.5,31.7-23,51.4c-0.5,19.6,6.7,38.3,20.1,52.8c14.1,15.1,34,23.8,54.5,23.8
				c18.5,0,36.2-6.9,49.6-19.5c14.4-13.4,22.5-31.7,23-51.4c0.5-19.6-6.7-38.3-20.1-52.8C967.1,863.8,947.2,855.1,926.7,855.1
				L926.7,855.1z"/>
			</g>
			<g id="center_x5F_ball_00000109007699128856379690000004991731252002819477_">
				<radialGradient id="SVGID_00000135673695710929451820000015847075884580256401_" cx="751.5471" cy="502.5884" r="62.1961" gradientUnits="userSpaceOnUse">
					<stop  offset="0" style="stop-color:#FFFFFF"/>
					<stop  offset="1" style="stop-color:#0000FF"/>
				</radialGradient>
				<path style="fill:url(#SVGID_00000135673695710929451820000015847075884580256401_);" d="M752.5,564.8
				c-17.4,0-34.2-7.3-46.1-20.1c-23.6-25.3-22.6-64.7,2.3-87.9c11.3-10.6,26.2-16.4,41.8-16.4c17.4,0,34.2,7.3,46.1,20.1
				c11.4,12.2,17.5,28.1,17.1,44.6c-0.4,16.7-7.3,32-19.4,43.3C783,559,768.2,564.8,752.5,564.8z"/>
				<path d="M750.5,451.9c13.7,0,27.5,5.5,37.7,16.5c19.3,20.7,18.5,52.8-1.7,71.7c-9.5,8.9-21.7,13.3-33.9,13.3
				c-13.7,0-27.5-5.5-37.7-16.5c-19.3-20.7-18.5-52.8,1.7-71.7C726.1,456.3,738.3,451.9,750.5,451.9 M750.5,428.9v23V428.9
				c-18.5,0-36.2,6.9-49.6,19.5c-29.5,27.5-30.8,74.3-2.9,104.2c14.1,15.1,34,23.8,54.5,23.8c18.5,0,36.2-6.9,49.6-19.5
				c14.4-13.4,22.5-31.7,23-51.4c0.5-19.6-6.7-38.3-20.1-52.8C790.9,437.5,771.1,428.9,750.5,428.9L750.5,428.9z"/>
			</g>
			<g id="top_x5F_ball_00000159433847978565217350000006084935139389686683_">
				<radialGradient id="SVGID_00000176730330757629759500000011378385562923080098_" cx="927.7297" cy="72.0505" r="62.196" gradientUnits="userSpaceOnUse">
					<stop  offset="0" style="stop-color:#FFFFFF"/>
					<stop  offset="1" style="stop-color:#0000FF"/>
				</radialGradient>
				<path style="fill:url(#SVGID_00000176730330757629759500000011378385562923080098_);" d="M928.7,134.3
				c-17.4,0-34.2-7.3-46.1-20.1c-23.6-25.3-22.6-64.7,2.3-87.9c11.3-10.6,26.2-16.4,41.8-16.4c17.4,0,34.2,7.3,46.1,20.1
				c11.4,12.2,17.5,28.1,17.1,44.6c-0.4,16.7-7.3,32-19.4,43.3C959.2,128.5,944.3,134.3,928.7,134.3z"/>
				<path d="M926.7,21.3c13.7,0,27.5,5.5,37.7,16.5c19.3,20.7,18.5,52.8-1.7,71.7c-9.5,8.9-21.7,13.3-33.9,13.3
				c-13.7,0-27.5-5.5-37.7-16.5c-19.3-20.7-18.5-52.8,1.7-71.7C902.3,25.7,914.5,21.3,926.7,21.3 M926.7-1.7v23V-1.7
				c-18.5,0-36.2,6.9-49.6,19.5c-29.5,27.5-30.8,74.3-2.9,104.2c14.1,15.1,34,23.8,54.5,23.8c18.5,0,36.2-6.9,49.6-19.5
				c29.5-27.5,30.8-74.3,2.9-104.2C967.1,7,947.2-1.7,926.7-1.7L926.7-1.7z"/>
			</g>
		</g>
	</g>
	<g id="left_x5F_bumerang">
		<g id="paths">
			<g id="bottom_x5F_path">
				<linearGradient id="SVGID_00000063620644143804893050000009783370321687270528_" gradientUnits="userSpaceOnUse" x1="43.0697" y1="-65.9623" x2="276.0634" y2="482.9368" gradientTransform="matrix(1 0 0 -1 0 924)">
					<stop  offset="0" style="stop-color:#FF0000"/>
					<stop  offset="1" style="stop-color:#FFFF00"/>
				</linearGradient>
				<path style="fill:url(#SVGID_00000063620644143804893050000009783370321687270528_);" d="M106,903.1c-3.1,0-6.1-1.3-8.3-3.5
				c-5.8-6.1-15.2-9.7-25-9.7c-3.9,0-7.7,0.6-11.2,1.7c-0.8,0.3-1.6,0.4-2.4,0.5c0,0,0,0,0,0c-0.3,0-0.6,0.1-0.8,0.1
				c0,0-0.3,0-0.4,0c-3.9,0-7.6-2-9.7-5.3c-2.2-3.5-2.4-7.9-0.5-11.6c0,0,0-0.1,0.1-0.1c2.1-4.3,23.4-51.4,48.1-105.8
				C141,670,197.1,546.1,203,534.6c1.7-3.3,4.8-5.5,8.4-6.1c0.6-0.1,1.2-0.1,1.8-0.1c3,0,5.9,1.2,8,3.3c4.6,4.5,26.2,7.9,37.9,7.9
				c0.1,0,0.2,0,0.3,0c0.5-0.1,0.9-0.1,1.4-0.1c3.3,0,6.5,1.4,8.7,4c2.9,3.4,3.6,8.2,1.8,12.3l-155,340.6c-1.6,3.5-4.8,5.9-8.5,6.6
				C107.3,903.1,106.6,903.1,106,903.1z"/>
				<path d="M213.3,539.9c9.3,9.1,38.5,11.2,46,11.2c0.9,0,1.5,0,1.7-0.1L106,891.6c-8.4-8.7-20.9-13.2-33.3-13.2
				c-5.1,0-10.1,0.8-14.8,2.3C58.6,880,203.9,558.1,213.3,539.9 M260.9,551L260.9,551 M57.9,880.7C57.9,880.7,57.9,880.7,57.9,880.7
				C57.9,880.7,57.9,880.7,57.9,880.7C57.9,880.7,57.9,880.7,57.9,880.7 M213.3,516.9c-1.2,0-2.5,0.1-3.7,0.3
				c-7.2,1.2-13.4,5.7-16.8,12.2c-5.6,10.9-51.9,113-107.4,235.4c-23.2,51.3-45.2,99.7-47.9,105.3c-1.6,3-2.5,6.4-2.6,10
				C34.6,890,40.7,899,50,902.4c1.8,0.7,3.7,1.1,5.6,1.3c0.8,0.1,1.5,0.1,2.3,0.1c2.1,0,4.2-0.3,6.2-0.9c0.3-0.1,0.6-0.2,0.9-0.3
				c2.3-0.7,5-1.1,7.6-1.1c6.7,0,13.1,2.4,16.7,6.1c4.4,4.5,10.4,7,16.6,7c1.3,0,2.6-0.1,3.9-0.3c7.5-1.3,13.9-6.2,17-13.1
				L281.6,561c1.5-3,2.3-6.4,2.3-10c0-12.3-9.7-22.4-21.9-23c-0.4,0-0.8,0-1.1,0c-0.5,0-1.1,0-1.6,0.1c-0.1,0-0.3,0-0.4,0
				c-9.2-0.1-25.6-2.6-30.2-5.2C224.5,519,218.9,516.9,213.3,516.9L213.3,516.9z"/>
			</g>
			<g id="top_x5F_path">
				<linearGradient id="SVGID_00000096028321165807964350000001296559999479569593_" gradientUnits="userSpaceOnUse" x1="41.1261" y1="917.8363" x2="277.8201" y2="360.2214" gradientTransform="matrix(1 0 0 -1 0 924)">
					<stop  offset="0" style="stop-color:#FF0000"/>
					<stop  offset="1" style="stop-color:#FFFF00"/>
				</linearGradient>
				<path style="fill:url(#SVGID_00000096028321165807964350000001296559999479569593_);" d="M213.4,477.8c-0.7,0-1.3-0.1-2-0.2
				c-3.8-0.7-7-3.2-8.5-6.7L49.2,125.8c-1.8-4-1.1-8.7,1.7-12c2.2-2.7,5.5-4.2,8.8-4.2c0.9,0,1.8,0.1,2.7,0.3
				c2.5,0.6,5.2,0.9,7.9,0.9c10.5,0,21.1-4.5,28.2-12c2.2-2.3,5.2-3.6,8.3-3.6c0.6,0,1.3,0.1,1.9,0.2c3.8,0.7,7,3.1,8.6,6.7
				L272,449.5c1.9,4.2,1.1,9.1-2.1,12.5c-2.2,2.4-5.3,3.7-8.4,3.7c-1.3,0-2.6-0.2-3.9-0.7c-2.9-1-6.1-1.5-9.5-1.5
				c-9.8,0-20.1,4.3-26.4,10.8C219.5,476.6,216.5,477.8,213.4,477.8z"/>
				<path d="M106.9,106.8l154.6,347.4c-4.2-1.5-8.8-2.2-13.4-2.2c-12.9,0-26.2,5.5-34.7,14.4L59.7,121.2c3.5,0.8,7.1,1.2,10.6,1.2
				C84,122.4,97.7,116.5,106.9,106.8 M106.9,83.8c-6.3,0-12.3,2.6-16.7,7.2c-4.9,5.2-12.6,8.4-19.9,8.4c-1.8,0-3.6-0.2-5.3-0.6
				c-1.8-0.4-3.6-0.6-5.3-0.6c-6.7,0-13.3,3-17.7,8.3c-5.6,6.7-6.9,16.1-3.3,24.1l153.7,345.2c3.1,7,9.5,12,17.1,13.3
				c1.3,0.2,2.6,0.3,3.9,0.3c6.2,0,12.2-2.5,16.6-7.1c4.1-4.3,11.6-7.3,18.1-7.3c2.1,0,4,0.3,5.6,0.9c2.5,0.9,5.1,1.3,7.7,1.3
				c6.3,0,12.4-2.6,16.9-7.4c6.3-6.8,7.9-16.6,4.1-25L127.9,97.4c-3.1-7-9.5-12-17.1-13.3C109.5,83.9,108.2,83.8,106.9,83.8
				L106.9,83.8z"/>
			</g>
		</g>
		<g id="balls">
			<g id="bottom_x5F_ball">
				<radialGradient id="SVGID_00000098942745398934137940000007326386559901584042_" cx="71.5151" cy="928.6157" r="62.1886" gradientUnits="userSpaceOnUse">
					<stop  offset="0" style="stop-color:#FFFFFF"/>
					<stop  offset="1" style="stop-color:#FF0000"/>
				</radialGradient>
				<path style="fill:url(#SVGID_00000098942745398934137940000007326386559901584042_);" d="M70.5,990.9c-15.6,0-30.4-5.8-41.8-16.4
				c-24.9-23.2-25.9-62.7-2.3-87.9c11.9-12.8,28.7-20.1,46.1-20.1c15.6,0,30.4,5.8,41.8,16.4c24.9,23.2,25.9,62.7,2.3,87.9
				C104.7,983.5,87.9,990.9,70.5,990.9z"/>
				<path d="M72.5,877.9c12.2,0,24.4,4.4,33.9,13.3c20.3,18.9,21,51,1.7,71.7c-10.2,10.9-24,16.5-37.7,16.5
				c-12.2,0-24.4-4.4-33.9-13.3c-20.3-18.9-21-51-1.7-71.7C45,883.4,58.8,877.9,72.5,877.9 M72.5,854.9
				C72.5,854.9,72.5,854.9,72.5,854.9c-20.5,0-40.4,8.7-54.5,23.8c-27.9,29.9-26.6,76.6,2.9,104.2c13.5,12.6,31.1,19.5,49.6,19.5
				c20.5,0,40.4-8.7,54.5-23.8c27.9-29.9,26.6-76.6-2.9-104.2C108.7,861.8,91.1,854.9,72.5,854.9L72.5,854.9z"/>
			</g>
			<g id="center_x5F_ball">
				<radialGradient id="SVGID_00000051366731917536890420000009455147888488154756_" cx="247.6027" cy="502.458" r="62.1958" gradientUnits="userSpaceOnUse">
					<stop  offset="0" style="stop-color:#FFFFFF"/>
					<stop  offset="1" style="stop-color:#FF0000"/>
				</radialGradient>
				<path style="fill:url(#SVGID_00000051366731917536890420000009455147888488154756_);" d="M246.6,564.7
				c-15.6,0-30.4-5.8-41.8-16.4c-12.1-11.3-19-26.7-19.4-43.3c-0.4-16.6,5.7-32.4,17.1-44.6c11.9-12.8,28.7-20.1,46.1-20.1
				c15.6,0,30.4,5.8,41.8,16.4c24.9,23.2,25.9,62.7,2.3,87.9C280.8,557.4,264,564.7,246.6,564.7z"/>
				<path d="M248.6,451.7c12.2,0,24.4,4.4,33.9,13.3c20.3,18.9,21,51,1.7,71.7c-10.2,10.9-24,16.5-37.7,16.5
				c-12.2,0-24.4-4.4-33.9-13.3c-20.3-18.9-21-51-1.7-71.7C221.1,457.3,234.9,451.7,248.6,451.7 M248.6,428.7
				C248.6,428.7,248.6,428.7,248.6,428.7c-20.5,0-40.4,8.7-54.5,23.8c-13.5,14.4-20.6,33.2-20.1,52.8c0.5,19.8,8.7,38,23,51.4
				c13.5,12.6,31.1,19.5,49.6,19.5c20.5,0,40.4-8.7,54.5-23.8c27.9-29.9,26.6-76.6-2.9-104.2C284.8,435.6,267.2,428.7,248.6,428.7
				L248.6,428.7z"/>
			</g>
			<g id="top_x5F_ball">
				<radialGradient id="SVGID_00000023277281868645445880000013684397148832336056_" cx="71.342" cy="71.696" r="62.196" gradientUnits="userSpaceOnUse">
					<stop  offset="0" style="stop-color:#FFFFFF"/>
					<stop  offset="1" style="stop-color:#FF0000"/>
				</radialGradient>
				<path style="fill:url(#SVGID_00000023277281868645445880000013684397148832336056_);" d="M70.3,133.9c-15.6,0-30.4-5.8-41.8-16.4
				c-12.1-11.3-19-26.7-19.4-43.3c-0.4-16.6,5.7-32.4,17.1-44.6C38.2,16.8,55,9.5,72.4,9.5c15.6,0,30.4,5.8,41.8,16.4
				c24.9,23.2,25.9,62.7,2.3,87.9C104.5,126.6,87.7,133.9,70.3,133.9z"/>
				<path d="M72.4,21c12.2,0,24.4,4.4,33.9,13.3c20.3,18.9,21,51,1.7,71.7c-10.2,10.9-24,16.5-37.7,16.5c-12.2,0-24.4-4.4-33.9-13.3
				c-20.3-18.9-21-51-1.7-71.7C44.9,26.5,58.7,21,72.4,21 M72.4-2C72.4-2,72.4-2,72.4-2C51.8-2,32,6.6,17.9,21.7
				c-27.9,29.9-26.6,76.6,2.9,104.2c13.5,12.6,31.1,19.5,49.6,19.5c20.5,0,40.4-8.7,54.5-23.8c13.5-14.4,20.6-33.2,20.1-52.8
				c-0.5-19.8-8.7-38-23-51.4C108.5,4.9,90.9-2,72.4-2L72.4-2z"/>
			</g>
		</g>
	</g>
</svg>