<?xml version="1.0" encoding="utf-8"?>
<!-- Generator: Adobe Illustrator 27.3.1, SVG Export Plug-In . SVG Version: 6.00 Build 0)  -->
<svg version="1.1" id="button" onclick="this.classList.add('active')"
	xmlns="http://www.w3.org/2000/svg" xmlns:xlink="http://www.w3.org/1999/xlink" x="0px" y="0px"
	viewBox="0 0 619.7 210"
	style="enable-background:new 0 0 619.7 210;" xml:space="preserve">
<style type="text/css">
	.st0{opacity:0;}
	.st1{fill:url(#background_night_00000070117009856814932360000006542375754368526209_);}
	.st2{fill:#FFD960;}
	.st3{opacity:0.1;fill:#231F20;enable-background:new    ;}
	.st4{fill-rule:evenodd;clip-rule:evenodd;fill:#6184FF;}
	.st5{fill-rule:evenodd;clip-rule:evenodd;fill:#087CFF;}
	.st6{fill-rule:evenodd;clip-rule:evenodd;fill:#0F98FF;}
	.st7{fill-rule:evenodd;clip-rule:evenodd;fill:#4482FF;}
	.st8{fill:#E2E4DA;}
	.st9{fill:url(#cratter_1_00000036940720682930014610000004317206719309342871_);}
	.st10{fill:url(#cratter_2_00000148634658562288690980000015938978277218666138_);}
	.st11{fill:url(#cratter_3_00000033328756832857010140000013865814496660062897_);}
	.st12{fill:url(#background_day_00000096033072712530798460000008841595170780456882_);}
	.st13{fill-rule:evenodd;clip-rule:evenodd;fill:#FFFFFF;}
	.st14{fill-rule:evenodd;clip-rule:evenodd;fill:#ECFCFF;}
	.st15{fill:#F5FF19;}
</style>
<defs>
	<script  xlink:href="theme_switcher_1.js"  language="JavaScript">
	</script>
</defs>
<g id="night" onclick="&quot;toggleDayNight()&quot;" class="st0">
	
		<linearGradient id="background_night_00000147906219883753527860000014724291284198612355_" gradientUnits="userSpaceOnUse" x1="200.01" y1="16.77" x2="200.01" y2="194.89" gradientTransform="matrix(1 0 0 -1 0 209.89)">
		<stop  offset="0" style="stop-color:#FFFFFF;stop-opacity:0"/>
		<stop  offset="9.000000e-02" style="stop-color:#CECCE2;stop-opacity:0.24"/>
		<stop  offset="0.19" style="stop-color:#A19DC6;stop-opacity:0.48"/>
		<stop  offset="0.3" style="stop-color:#7B76B0;stop-opacity:0.67"/>
		<stop  offset="0.42" style="stop-color:#5E579E;stop-opacity:0.82"/>
		<stop  offset="0.56" style="stop-color:#494292;stop-opacity:0.92"/>
		<stop  offset="0.72" style="stop-color:#3D358B;stop-opacity:0.98"/>
		<stop  offset="1" style="stop-color:#3A3289"/>
	</linearGradient>
	<path id="background_night" style="fill:url(#background_night_00000147906219883753527860000014724291284198612355_);" d="
		M89.1,15H311c49.2,0,89.1,39.9,89.1,89.1l0,0c0,49.2-39.9,89.1-89.1,89.1H89.1C39.9,193.1,0,153.2,0,104.1l0,0
		C0,54.9,39.9,15,89.1,15z"/>
	<g id="stars">
		<g id="stars_1">
			<path class="st2" d="M56.4,72.4l-0.9-3.8l6.3-4.7c0.3-0.2,0.4-0.5,0.2-0.8s-0.4-0.5-0.8-0.5l-8.8-1l-3.9-6
				c-0.2-0.2-0.5-0.4-0.9-0.4s-0.7,0.2-0.9,0.4l-3.9,6l-8.8,1c-0.4,0-0.7,0.2-0.8,0.5s0,0.6,0.2,0.8l6.3,4.7l-1.5,6.6
				c-0.1,0.3,0.1,0.6,0.4,0.7c0.3,0.2,0.7,0.2,1,0.1l7.8-3.1l7.8,3.1C55.7,76,55.9,76,56,76c0.2,0,0.4-0.1,0.6-0.1
				c0.3-0.2,0.5-0.4,0.4-0.7L56.4,72.4"/>
			<path class="st2" d="M39.7,49.5c0-0.1-0.2-0.2-0.3-0.2l-3.9-0.4l-1.7-2.7c-0.1-0.1-0.2-0.2-0.4-0.2s-0.3,0.1-0.4,0.2l-1.7,2.7
				l-3.9,0.4c-0.2,0-0.3,0.1-0.4,0.2c0,0.1,0,0.2,0.1,0.3l2.8,2.1l-0.7,2.9c0,0.1,0,0.2,0.2,0.3s0.3,0.1,0.5,0l3.5-1.4l3.5,1.4
				c0.1,0,0.1,0,0.2,0c0.1,0,0.2,0,0.3-0.1c0.1-0.1,0.2-0.2,0.2-0.3L36.7,52l2.8-2.1C39.7,49.8,39.7,49.7,39.7,49.5L39.7,49.5z"/>
			<path class="st2" d="M52.5,83c0-0.1-0.1-0.2-0.3-0.2l-2.9-0.3l-1.3-2c0-0.1-0.2-0.1-0.3-0.1s-0.2,0.1-0.3,0.1l-1.3,2l-2.9,0.3
				c-0.1,0-0.2,0.1-0.3,0.2c0,0.1,0,0.2,0.1,0.2l2.1,1.6L44.7,87c0,0.1,0,0.2,0.1,0.2c0.1,0.1,0.2,0.1,0.3,0l2.6-1l2.6,1
				c0,0,0.1,0,0.2,0c0.1,0,0.1,0,0.2-0.1c0.1-0.1,0.2-0.2,0.1-0.2l-0.5-2.2l2.1-1.6C52.5,83.2,52.5,83.1,52.5,83L52.5,83z"/>
			<path class="st3" d="M41.7,74.4l1.5-6.6l-6.3-4.7c-0.3-0.2-0.4-0.5-0.2-0.8c0,0,0,0,0,0l-2.5,0.3c-0.4,0-0.7,0.2-0.8,0.5
				s0,0.6,0.2,0.8l6.3,4.7l-1.5,6.6c-0.1,0.3,0.1,0.6,0.4,0.7c0.3,0.2,0.7,0.2,1,0.1l2.1-0.8C41.8,74.9,41.6,74.7,41.7,74.4
				L41.7,74.4z"/>
			<path class="st3" d="M32.4,54.1l0.7-2.9l-2.8-2.1c-0.1,0-0.1-0.1-0.1-0.2l-2.9,0.3c-0.2,0-0.3,0.1-0.4,0.2c0,0.1,0,0.2,0.1,0.3
				l2.8,2.1l-0.7,2.9c0,0.1,0,0.2,0.2,0.3s0.3,0.1,0.5,0L32.4,54.1C32.4,54.2,32.4,54.2,32.4,54.1L32.4,54.1z"/>
			<path class="st3" d="M47.9,86.3l0.5-2.2l-2.1-1.6c0,0-0.1-0.1-0.1-0.1l0,0.1l-2.9,0.3c-0.1,0-0.2,0.1-0.3,0.2
				c0,0.1,0,0.2,0.1,0.2l2.1,1.6L44.7,87c0,0.1,0,0.2,0.1,0.2c0.1,0.1,0.2,0.1,0.3,0l2.6-1L47.9,86.3L47.9,86.3L47.9,86.3z"/>
			<ellipse class="st2" cx="68.6" cy="70.4" rx="2.9" ry="2.2"/>
			<ellipse class="st2" cx="27" cy="73.8" rx="2.9" ry="2.2"/>
			<path class="st3" d="M67.7,70.4c0-0.9,0.8-1.7,1.9-2c-0.3-0.1-0.6-0.1-1-0.1c-1.6,0-2.9,1-2.9,2.2s1.3,2.2,2.9,2.2
				c0.3,0,0.7,0,1-0.1C68.4,72.1,67.7,71.3,67.7,70.4L67.7,70.4z"/>
			<path class="st3" d="M26,73.8c0-0.9,0.8-1.7,1.9-2c-0.3-0.1-0.6-0.1-1-0.1c-1.6,0-2.9,1-2.9,2.2s1.3,2.2,2.9,2.2
				c0.3,0,0.7,0,1-0.1C26.8,75.6,26,74.8,26,73.8L26,73.8z"/>
			<ellipse class="st2" cx="61.3" cy="53.7" rx="2" ry="1.5"/>
			<ellipse class="st2" cx="65.7" cy="81.1" rx="2" ry="1.5"/>
		</g>
		<g id="stars_2">
			<path class="st2" d="M182.1,65.2l-0.9-3.8l6.3-4.7c0.3-0.2,0.4-0.5,0.2-0.8s-0.4-0.5-0.8-0.5l-8.8-1l-3.9-6
				c-0.2-0.2-0.5-0.4-0.9-0.4s-0.7,0.2-0.9,0.4l-3.9,6l-8.8,1c-0.4,0-0.7,0.2-0.8,0.5s0,0.6,0.2,0.8l6.3,4.7l-1.5,6.6
				c-0.1,0.3,0.1,0.6,0.4,0.7c0.3,0.2,0.7,0.2,1,0.1l7.8-3.1l7.8,3.1c0.1,0.1,0.3,0.1,0.5,0.1c0.2,0,0.4-0.1,0.6-0.1
				c0.3-0.2,0.5-0.4,0.4-0.7L182.1,65.2"/>
			<path class="st2" d="M165.4,42.4c-0.1-0.1-0.2-0.2-0.4-0.2l-3.9-0.4l-1.7-2.7c-0.1-0.1-0.2-0.2-0.4-0.2s-0.3,0.1-0.4,0.2
				l-1.7,2.7l-3.9,0.4c-0.2,0-0.3,0.1-0.4,0.2c-0.1,0.1,0,0.2,0.1,0.3l2.8,2.1l-0.7,2.9c0,0.1,0,0.2,0.2,0.3s0.3,0.1,0.5,0l3.5-1.4
				l3.5,1.4c0.1,0,0.1,0,0.2,0c0.1,0,0.2,0,0.3-0.1c0.1-0.1,0.2-0.2,0.2-0.3l-0.7-2.9l2.8-2.1C165.4,42.6,165.4,42.5,165.4,42.4
				L165.4,42.4z"/>
			<path class="st2" d="M178.3,75.9c0-0.1-0.1-0.2-0.3-0.2l-2.9-0.3l-1.3-2c-0.1-0.1-0.2-0.1-0.3-0.1s-0.2,0.1-0.3,0.1l-1.3,2
				l-2.9,0.3c-0.1,0-0.2,0.1-0.3,0.2c0,0.1,0,0.2,0.1,0.2l2.1,1.6l-0.5,2.2c0,0.1,0,0.2,0.1,0.2c0.1,0.1,0.2,0.1,0.3,0l2.6-1l2.6,1
				c0,0,0.1,0,0.1,0c0.1,0,0.1,0,0.2-0.1c0.1-0.1,0.1-0.2,0.1-0.2l-0.5-2.2l2.1-1.6C178.3,76,178.3,76,178.3,75.9L178.3,75.9z"/>
			<path class="st3" d="M167.5,67.2l1.5-6.6l-6.3-4.7c-0.3-0.2-0.4-0.5-0.2-0.8c0,0,0,0,0,0l-2.4,0.3c-0.4,0-0.7,0.2-0.8,0.5
				s0,0.6,0.2,0.8l6.3,4.7l-1.5,6.6c-0.1,0.3,0.1,0.6,0.4,0.7c0.3,0.2,0.7,0.2,1,0.1l2.1-0.8C167.5,67.8,167.4,67.5,167.5,67.2
				L167.5,67.2z"/>
			<path class="st3" d="M158.2,47l0.7-2.9L156,42c-0.1,0-0.1-0.1-0.1-0.2l-2.9,0.3c-0.2,0-0.3,0.1-0.4,0.2c-0.1,0.1,0,0.2,0.1,0.3
				l2.8,2.1l-0.7,2.9c0,0.1,0,0.2,0.2,0.3s0.3,0.1,0.5,0L158.2,47C158.2,47,158.2,47,158.2,47L158.2,47z"/>
			<path class="st3" d="M173.6,79.1l0.5-2.2l-2.1-1.6c0,0-0.1-0.1-0.1-0.1l-0.1,0.1l-2.9,0.3c-0.1,0-0.2,0.1-0.3,0.2
				c0,0.1,0,0.2,0.1,0.2l2.1,1.6l-0.5,2.2c0,0.1,0,0.2,0.1,0.2c0.1,0.1,0.2,0.1,0.3,0l2.6-1L173.6,79.1L173.6,79.1L173.6,79.1z"/>
			<ellipse class="st2" cx="194.3" cy="63.2" rx="2.9" ry="2.2"/>
			<ellipse class="st2" cx="152.7" cy="66.7" rx="2.9" ry="2.2"/>
			<path class="st3" d="M193.4,63.2c0-0.9,0.8-1.7,1.9-2c-0.3-0.1-0.6-0.1-1-0.1c-1.6,0-2.9,1-2.9,2.2s1.3,2.2,2.9,2.2
				c0.3,0,0.7,0,1-0.1C194.2,64.9,193.4,64.1,193.4,63.2L193.4,63.2z"/>
			<path class="st3" d="M151.7,66.7c0-0.9,0.8-1.7,1.9-2c-0.3-0.1-0.6-0.1-1-0.1c-1.6,0-2.9,1-2.9,2.2s1.3,2.2,2.9,2.2
				c0.3,0,0.7,0,1-0.1C152.5,68.4,151.7,67.6,151.7,66.7L151.7,66.7z"/>
			<ellipse class="st2" cx="187" cy="46.6" rx="2" ry="1.5"/>
			<ellipse class="st2" cx="191.5" cy="73.9" rx="2" ry="1.5"/>
		</g>
		<g id="stars_3">
			<path class="st2" d="M116,44.6l-0.9-3.8l6.3-4.7c0.3-0.2,0.4-0.5,0.2-0.8s-0.4-0.5-0.8-0.5l-8.8-1l-3.9-6
				c-0.2-0.2-0.5-0.4-0.9-0.4s-0.7,0.2-0.9,0.4l-3.9,6l-8.8,1c-0.4,0-0.7,0.2-0.8,0.5s0,0.6,0.2,0.8l6.3,4.7l-1.5,6.6
				c-0.1,0.3,0.1,0.6,0.4,0.7s0.7,0.2,1,0.1l7.8-3.1l7.8,3.1c0.1,0.1,0.3,0.1,0.5,0.1c0.2,0,0.4,0,0.6-0.1c0.3-0.2,0.5-0.5,0.4-0.7
				L116,44.6"/>
			<path class="st2" d="M99.3,21.8c-0.1-0.1-0.2-0.2-0.3-0.2l-3.9-0.4l-1.7-2.6c-0.1-0.1-0.2-0.2-0.4-0.2s-0.3,0.1-0.4,0.2l-1.7,2.6
				l-3.9,0.4c-0.2,0-0.3,0.1-0.3,0.2c-0.1,0.1,0,0.2,0.1,0.3l2.8,2.1l-0.7,2.9c0,0.1,0,0.2,0.2,0.3s0.3,0.1,0.5,0l3.5-1.4l3.5,1.4
				c0.1,0,0.1,0,0.2,0c0.1,0,0.2,0,0.3-0.1c0.1-0.1,0.2-0.2,0.2-0.3l-0.7-2.9l2.8-2.1C99.3,22,99.4,21.9,99.3,21.8L99.3,21.8z"/>
			<path class="st2" d="M112.2,55.2c0-0.1-0.1-0.2-0.3-0.2l-2.9-0.3l-1.3-2c-0.1-0.1-0.2-0.1-0.3-0.1s-0.2,0-0.3,0.1l-1.3,2
				l-2.9,0.3c-0.1,0-0.2,0.1-0.3,0.2c0,0.1,0,0.2,0.1,0.2l2.1,1.5l-0.5,2.2c0,0.1,0,0.2,0.1,0.2c0.1,0.1,0.2,0.1,0.3,0l2.6-1l2.6,1
				c0,0,0.1,0,0.2,0c0.1,0,0.1,0,0.2,0c0.1-0.1,0.2-0.2,0.1-0.2L110,57l2.1-1.5C112.1,55.4,112.2,55.3,112.2,55.2L112.2,55.2z"/>
			<path class="st3" d="M101.3,46.6l1.5-6.6l-6.3-4.7c-0.3-0.2-0.4-0.5-0.2-0.8c0,0,0,0,0,0l-2.4,0.3c-0.4,0-0.7,0.2-0.8,0.5
				s0,0.6,0.2,0.8l6.3,4.7l-1.5,6.6c-0.1,0.3,0.1,0.6,0.4,0.7s0.7,0.2,1,0.1l2.1-0.8C101.4,47.1,101.3,46.9,101.3,46.6L101.3,46.6z"
				/>
			<path class="st3" d="M92.1,26.3l0.7-2.9l-2.8-2.1c-0.1,0-0.1-0.1-0.1-0.1l-2.9,0.3c-0.2,0-0.3,0.1-0.3,0.2
				c-0.1,0.1,0,0.2,0.1,0.3l2.8,2.1l-0.7,2.9c0,0.1,0,0.2,0.2,0.3s0.3,0.1,0.5,0L92.1,26.3C92,26.4,92,26.4,92.1,26.3L92.1,26.3z"/>
			<path class="st3" d="M107.5,58.5l0.5-2.2l-2.1-1.5c0,0-0.1-0.1-0.1-0.1l-0.1,0.1l-2.9,0.3c-0.1,0-0.2,0.1-0.3,0.2
				c0,0.1,0,0.2,0.1,0.2l2.1,1.5l-0.5,2.2c0,0.1,0,0.2,0.1,0.2c0.1,0.1,0.2,0.1,0.3,0l2.6-1L107.5,58.5L107.5,58.5L107.5,58.5z"/>
			<ellipse class="st2" cx="128.2" cy="42.6" rx="2.9" ry="2.2"/>
			<ellipse class="st2" cx="86.6" cy="46.1" rx="2.9" ry="2.2"/>
			<path class="st3" d="M127.3,42.6c0-0.9,0.8-1.7,1.9-2c-0.3-0.1-0.6-0.1-1-0.1c-1.6,0-2.9,1-2.9,2.2s1.3,2.2,2.9,2.2
				c0.3,0,0.7,0,1-0.1C128.1,44.3,127.3,43.5,127.3,42.6L127.3,42.6z"/>
			<path class="st3" d="M85.6,46.1c0-0.9,0.8-1.7,1.9-2c-0.3-0.1-0.6-0.1-1-0.1c-1.6,0-2.9,1-2.9,2.2s1.3,2.2,2.9,2.2
				c0.3,0,0.7,0,1-0.1C86.4,47.8,85.6,47,85.6,46.1L85.6,46.1z"/>
			<ellipse class="st2" cx="120.9" cy="25.9" rx="2" ry="1.5"/>
			<ellipse class="st2" cx="125.4" cy="53.3" rx="2" ry="1.5"/>
		</g>
	</g>
	<g id="cloud">
		<path class="st4" d="M135.4,150.7H73.9c-9.4,0-17.1-4.4-17.1-9.8s7.7-9.8,17.1-9.8c0.9,0,1.7-0.4,1.7-1s-0.8-1-1.7-1h0
			c0,0,0,0,0,0c-1.3,0-2.6,0.1-3.8,0.2c-1.8-1.1-3-2.5-3-4.1c0-3.2,4.6-5.9,10.2-5.9c2.8,0,5.4,0.7,7.2,1.7c0,0,1.7,1,3,0.2
			c1.3-0.7-0.6-1.6-0.6-1.6c-1.1-0.6-2.3-1.1-3.7-1.5c0,0,0,0,0,0c4.7-6.2,15.6-10.6,28.2-10.6c14.9,0,27.3,6.1,30.1,14.2
			c0,0,0,0,0,0c-2-0.3-4.1-0.4-6.2-0.4c-0.9,0-1.7,0.4-1.7,1s0.8,1,1.7,1c13.2,0,23.9,6.2,23.9,13.7S148.6,150.6,135.4,150.7
			L135.4,150.7z"/>
		<path class="st5" d="M85.5,132.3c-1.3,0.7,0.4,1.6,0.4,1.6c3.1,1.8,5,4.2,5,6.9c0,0.5,0.8,1,1.7,1s1.7-0.4,1.7-1
			c0-3.2-2.3-6.2-6-8.3C88.4,132.5,86.8,131.6,85.5,132.3L85.5,132.3z"/>
		<path class="st6" d="M135.4,127.1c-0.9,0-1.7,0.4-1.7,1s0.8,1,1.7,1c7.6,0,13.7,3.5,13.7,7.9c0,0.5,0.8,1,1.7,1s1.7-0.4,1.7-1
			C152.4,131.5,144.8,127.1,135.4,127.1L135.4,127.1z"/>
		<path class="st7" d="M145.2,122.3c-2.4-9.5-16.6-16.8-33.8-16.8c-14.1,0-26.2,4.9-31.4,11.9c-0.9-0.1-1.8-0.2-2.7-0.2
			c-7.6,0-13.7,3.5-13.7,7.8c0,1.8,1,3.4,2.8,4.7c-7.6,1.7-13,6-13,11c0,6.5,9.2,11.8,20.5,11.8h61.5c15.1,0,27.3-7,27.3-15.7
			C162.7,130.3,155.4,124.6,145.2,122.3L145.2,122.3z M135.4,150.6H73.9c-9.4,0-17.1-4.4-17.1-9.8s7.7-9.8,17.1-9.8
			c0.9,0,1.7-0.4,1.7-1s-0.8-1-1.7-1h0c0,0,0,0,0,0c-1.3,0-2.6,0.1-3.8,0.2c-1.8-1.1-3-2.5-3-4.1c0-3.2,4.6-5.9,10.2-5.9
			c2.8,0,5.4,0.7,7.2,1.7c0,0,1.7,1,3,0.2c1.3-0.7-0.6-1.6-0.6-1.6c-1.1-0.6-2.3-1.1-3.7-1.5c0,0,0,0,0,0
			c4.7-6.2,15.6-10.6,28.2-10.6c14.9,0,27.3,6.1,30.1,14.2c0,0,0,0,0,0c-2-0.3-4.1-0.4-6.2-0.4c-0.9,0-1.7,0.4-1.7,1s0.8,1,1.7,1
			c13.2,0,23.9,6.2,23.9,13.7S148.6,150.6,135.4,150.6L135.4,150.6z"/>
	</g>
	<g id="moon">
		<ellipse id="moon-2" class="st8" cx="310.1" cy="103.8" rx="89.9" ry="89.8"/>
		
			<linearGradient id="cratter_1_00000013172345882766049160000002348913834497113523_" gradientUnits="userSpaceOnUse" x1="527.8475" y1="236.079" x2="527.8475" y2="221.379" gradientTransform="matrix(0.7071 0.7071 0.7071 -0.7071 -233.0798 -153.2174)">
			<stop  offset="0" style="stop-color:#9B98A6"/>
			<stop  offset="1" style="stop-color:#E2E4DA;stop-opacity:0"/>
		</linearGradient>
		<path id="cratter_1" style="fill:url(#cratter_1_00000013172345882766049160000002348913834497113523_);" d="M291.9,48.3
			c2.9-2.9,9.7-0.7,15.2,4.8c5.5,5.5,7.7,12.3,4.8,15.2c-2.9,2.9-9.7,0.7-15.2-4.8C291.2,58,289,51.2,291.9,48.3z"/>
		
			<linearGradient id="cratter_2_00000021804860917102536110000000868690006100769933_" gradientUnits="userSpaceOnUse" x1="253.72" y1="105.39" x2="253.72" y2="81.25" gradientTransform="matrix(1 0 0 -1 0 209.89)">
			<stop  offset="0" style="stop-color:#9B98A6"/>
			<stop  offset="1" style="stop-color:#E2E4DA;stop-opacity:0"/>
		</linearGradient>
		
			<ellipse id="cratter_2" style="fill:url(#cratter_2_00000021804860917102536110000000868690006100769933_);" cx="253.7" cy="116.6" rx="12.1" ry="12.1"/>
		
			<linearGradient id="cratter_3_00000130625149257048430630000002043902621599448755_" gradientUnits="userSpaceOnUse" x1="534.9211" y1="175.7169" x2="534.9211" y2="135.677" gradientTransform="matrix(0.7784 0.6278 0.6278 -0.7784 -171.4886 -85.9922)">
			<stop  offset="2.000000e-02" style="stop-color:#9B98A6"/>
			<stop  offset="1" style="stop-color:#E2E4DA"/>
		</linearGradient>
		<path id="cratter_3" style="fill:url(#cratter_3_00000130625149257048430630000002043902621599448755_);" d="M333.5,121.3
			c7-8.6,16.7-12.3,21.7-8.2c5,4.1,3.5,14.3-3.5,22.9c-7,8.6-16.7,12.3-21.7,8.2C325,140.2,326.5,129.9,333.5,121.3z"/>
	</g>
</g>
<g id="day" onclick="&quot;toggleDayNight()&quot;">
	
		<linearGradient id="background_day_00000087373676690859087780000008594362556415946125_" gradientUnits="userSpaceOnUse" x1="419.71" y1="194.89" x2="419.71" y2="15.77" gradientTransform="matrix(1 0 0 -1 0 209.89)">
		<stop  offset="0" style="stop-color:#3DDEED"/>
		<stop  offset="9.000000e-02" style="stop-color:#3DDEED;stop-opacity:0.96"/>
		<stop  offset="0.24" style="stop-color:#3DDEED;stop-opacity:0.86"/>
		<stop  offset="0.42" style="stop-color:#3DDEED;stop-opacity:0.69"/>
		<stop  offset="0.64" style="stop-color:#3DDEED;stop-opacity:0.46"/>
		<stop  offset="0.88" style="stop-color:#3DDEED;stop-opacity:0.16"/>
		<stop  offset="1" style="stop-color:#3DDEED;stop-opacity:0"/>
	</linearGradient>
	<path id="background_day" style="fill:url(#background_day_00000087373676690859087780000008594362556415946125_);" d="M309.3,15
		h220.9c49.5,0,89.6,40.1,89.6,89.6l0,0c0,49.5-40.1,89.6-89.6,89.6H309.3c-49.5,0-89.6-40.1-89.6-89.6l0,0
		C219.7,55.1,259.8,15,309.3,15z"/>
	<g id="clouds">
		<g id="cloud_1">
			<path class="st13" d="M488.2,87.8h-34.8c-5.3,0-9.7-3.5-9.7-7.7s4.3-7.7,9.7-7.7c0.5,0,1-0.3,1-0.8s-0.4-0.8-1-0.8h0c0,0,0,0,0,0
				c-0.8,0-1.5,0.1-2.2,0.2c-1-0.8-1.7-2-1.7-3.3c0-2.6,2.6-4.6,5.8-4.6c1.6,0,3,0.5,4.1,1.4c0,0,1,0.8,1.7,0.2
				c0.7-0.6-0.3-1.3-0.3-1.3c-0.6-0.5-1.3-0.9-2.1-1.2l0,0c2.7-4.9,8.8-8.4,16-8.4c8.4,0,15.5,4.8,17,11.2c0,0,0,0,0,0
				c-1.1-0.2-2.3-0.3-3.5-0.3c-0.5,0-1,0.3-1,0.8s0.4,0.8,1,0.8c7.5,0,13.5,4.8,13.5,10.8S495.7,87.8,488.2,87.8L488.2,87.8z"/>
			<path class="st14" d="M488.2,69.3c-0.5,0-1,0.3-1,0.8s0.4,0.8,1,0.8c4.3,0,7.7,2.8,7.7,6.2c0,0.4,0.4,0.8,1,0.8s1-0.3,1-0.8
				C497.9,72.7,493.5,69.2,488.2,69.3L488.2,69.3z"/>
			<path class="st14" d="M493.8,65.5c-1.4-7.5-9.4-13.2-19.1-13.2c-8,0-14.8,3.9-17.8,9.4c-0.5-0.1-1-0.1-1.5-0.1
				c-4.3,0-7.7,2.8-7.7,6.2c0,1.4,0.6,2.7,1.6,3.7c-4.3,1.3-7.4,4.7-7.4,8.6c0,5.1,5.2,9.3,11.6,9.3h34.8c8.5,0,15.5-5.5,15.5-12.4
				C503.7,71.7,499.6,67.3,493.8,65.5L493.8,65.5z M488.2,87.8h-34.8c-5.3,0-9.7-3.5-9.7-7.7s4.3-7.7,9.7-7.7c0.5,0,1-0.3,1-0.8
				s-0.4-0.8-1-0.8h0c0,0,0,0,0,0c-0.8,0-1.5,0.1-2.2,0.2c-1-0.8-1.7-2-1.7-3.3c0-2.6,2.6-4.6,5.8-4.6c1.6,0,3,0.5,4.1,1.4
				c0,0,1,0.8,1.7,0.2c0.7-0.6-0.3-1.3-0.3-1.3c-0.6-0.5-1.3-0.9-2.1-1.2l0,0c2.7-4.9,8.8-8.4,16-8.4c8.4,0,15.5,4.8,17,11.2
				c0,0,0,0,0,0c-1.1-0.2-2.3-0.3-3.5-0.3c-0.5,0-1,0.3-1,0.8s0.4,0.8,1,0.8c7.5,0,13.5,4.8,13.5,10.8S495.7,87.8,488.2,87.8
				L488.2,87.8z"/>
			<path class="st14" d="M460,73.3c-0.7,0.6,0.2,1.3,0.2,1.3c1.8,1.4,2.8,3.3,2.8,5.5c0,0.4,0.4,0.8,1,0.8s1-0.3,1-0.8
				c0-2.6-1.3-4.9-3.4-6.6C461.6,73.5,460.7,72.8,460,73.3z"/>
		</g>
		<g id="cloud_2">
			<g id="cloud_1-2">
				<path class="st13" d="M582,118.8h-39.4c-6,0-11-3.8-11-8.5s4.9-8.5,11-8.5c0.6,0,1.1-0.4,1.1-0.8s-0.5-0.8-1.1-0.8h0
					c0,0,0,0,0,0c-0.8,0-1.7,0.1-2.5,0.2c-1.2-0.9-1.9-2.2-1.9-3.6c0-2.8,2.9-5.1,6.6-5.1c1.8,0,3.5,0.6,4.6,1.5
					c0,0,1.1,0.8,1.9,0.2s-0.4-1.4-0.4-1.4c-0.7-0.5-1.5-1-2.4-1.3l0,0c3-5.4,10-9.2,18.1-9.2c9.5,0,17.5,5.3,19.3,12.3c0,0,0,0,0,0
					c-1.3-0.2-2.6-0.4-4-0.4c-0.6,0-1.1,0.4-1.1,0.8s0.5,0.8,1.1,0.8c8.5,0,15.3,5.3,15.3,11.9S590.4,118.7,582,118.8L582,118.8z"/>
				<path class="st14" d="M582,98.3c-0.6,0-1.1,0.4-1.1,0.8s0.5,0.8,1.1,0.8c4.8,0,8.8,3.1,8.8,6.8c0,0.5,0.5,0.8,1.1,0.8
					s1.1-0.4,1.1-0.8C592.9,102.1,588,98.3,582,98.3L582,98.3z"/>
				<path class="st14" d="M588.3,94.1c-1.5-8.2-10.6-14.6-21.6-14.6c-9,0-16.8,4.3-20.1,10.4c-0.6-0.1-1.2-0.1-1.8-0.1
					c-4.8,0-8.8,3.1-8.8,6.8c0,1.6,0.7,3,1.8,4.1c-4.9,1.5-8.4,5.2-8.4,9.5c0,5.7,5.9,10.2,13.1,10.2H582c9.7,0,17.5-6.1,17.5-13.7
					C599.5,101,594.8,96.1,588.3,94.1L588.3,94.1z M582,118.8h-39.4c-6,0-11-3.8-11-8.5s4.9-8.5,11-8.5c0.6,0,1.1-0.4,1.1-0.8
					s-0.5-0.8-1.1-0.8h0c0,0,0,0,0,0c-0.8,0-1.7,0.1-2.5,0.2c-1.2-0.9-1.9-2.2-1.9-3.6c0-2.8,2.9-5.1,6.6-5.1c1.8,0,3.5,0.6,4.6,1.5
					c0,0,1.1,0.8,1.9,0.2s-0.4-1.4-0.4-1.4c-0.7-0.5-1.5-1-2.4-1.3l0,0c3-5.4,10-9.2,18.1-9.2c9.5,0,17.5,5.3,19.3,12.3c0,0,0,0,0,0
					c-1.3-0.2-2.6-0.4-4-0.4c-0.6,0-1.1,0.4-1.1,0.8s0.5,0.8,1.1,0.8c8.5,0,15.3,5.3,15.3,11.9S590.4,118.7,582,118.8L582,118.8z"/>
				<path class="st14" d="M550.1,102.8c-0.8,0.6,0.3,1.4,0.3,1.4c2,1.6,3.2,3.7,3.2,6c0,0.5,0.5,0.8,1.1,0.8s1.1-0.4,1.1-0.8
					c0-2.8-1.5-5.4-3.8-7.2C551.9,103,550.9,102.2,550.1,102.8L550.1,102.8z"/>
			</g>
		</g>
		<g id="cloud_3">
			<g id="cloud_1-3">
				<path class="st13" d="M500.3,172.2h-53.6c-8.2,0-14.9-4.3-14.9-9.7s6.7-9.7,14.9-9.7c0.8,0,1.5-0.4,1.5-1s-0.7-1-1.5-1h0
					c0,0,0,0,0,0c-1.1,0-2.3,0.1-3.4,0.2c-1.6-1.1-2.6-2.5-2.6-4.1c0-3.2,4-5.8,8.9-5.8c2.5,0,4.7,0.6,6.3,1.7c0,0,1.5,1,2.6,0.2
					s-0.5-1.6-0.5-1.6c-0.9-0.6-2-1.1-3.2-1.5l0,0c4.1-6.1,13.6-10.4,24.6-10.4c13,0,23.8,6,26.3,13.9c0,0,0,0,0,0
					c-1.8-0.3-3.6-0.4-5.5-0.4c-0.8,0-1.5,0.4-1.5,1s0.7,1,1.5,1c11.5,0,20.9,6.1,20.9,13.5S511.8,172.2,500.3,172.2L500.3,172.2z"
					/>
				<path class="st14" d="M500.3,149c-0.8,0-1.5,0.4-1.5,1s0.7,1,1.5,1c6.6,0,11.9,3.5,11.9,7.7c0,0.5,0.7,1,1.5,1s1.5-0.4,1.5-1
					C515.2,153.4,508.6,149,500.3,149L500.3,149z"/>
				<path class="st14" d="M508.9,144.3c-2.1-9.3-14.5-16.5-29.5-16.5c-12.3,0-22.9,4.8-27.4,11.7c-0.8-0.1-1.6-0.1-2.4-0.1
					c-6.6,0-11.9,3.5-11.9,7.7c0,1.8,0.9,3.4,2.4,4.7c-6.7,1.7-11.4,5.9-11.4,10.8c0,6.4,8,11.6,17.9,11.6h53.6
					c13.2,0,23.8-6.9,23.8-15.4C524.2,152.1,517.8,146.5,508.9,144.3L508.9,144.3z M500.3,172.2h-53.6c-8.2,0-14.9-4.3-14.9-9.7
					s6.7-9.7,14.9-9.7c0.8,0,1.5-0.4,1.5-1s-0.7-1-1.5-1h0c0,0,0,0,0,0c-1.1,0-2.3,0.1-3.4,0.2c-1.6-1.1-2.6-2.5-2.6-4.1
					c0-3.2,4-5.8,8.9-5.8c2.5,0,4.7,0.6,6.3,1.7c0,0,1.5,1,2.6,0.2s-0.5-1.6-0.5-1.6c-0.9-0.6-2-1.1-3.2-1.5l0,0
					c4.1-6.1,13.6-10.4,24.6-10.4c13,0,23.8,6,26.3,13.9c0,0,0,0,0,0c-1.8-0.3-3.6-0.4-5.5-0.4c-0.8,0-1.5,0.4-1.5,1s0.7,1,1.5,1
					c11.5,0,20.9,6.1,20.9,13.5S511.8,172.2,500.3,172.2L500.3,172.2z"/>
				<path class="st14" d="M456.9,154.1c-1.1,0.7,0.4,1.6,0.4,1.6c2.7,1.8,4.4,4.2,4.4,6.8c0,0.5,0.7,1,1.5,1s1.5-0.4,1.5-1
					c0-3.2-2-6.1-5.2-8.2C459.3,154.3,458,153.4,456.9,154.1L456.9,154.1z"/>
			</g>
		</g>
	</g>
	<path class="st15" d="M400,104.6c0,49.5-40.2,89.6-89.9,89.6s-89.9-40.1-89.9-89.6S260.5,15,310.1,15S400,55.1,400,104.6L400,104.6
		z"/>
</g>
</svg>